<svg xmlns="http://www.w3.org/2000/svg" width="32" height="32" viewBox="0 0 32 32" fill="none">
  <path d="M15 1.155a2 2 0 0 1 2 0l10.856 6.268a2 2 0 0 1 1 1.732v12.69a2 2 0 0 1-1 1.732L17 30.845a2 2 0 0 1-2 0L4.144 24.577a2 2 0 0 1-1-1.732V10.155a2 2 0 0 1 1-1.732z" fill="#009FE3"/>
  <g transform="translate(7 8) scale(0.75)" fill="none" stroke="#ffffff" stroke-width="2.2" stroke-linecap="round" stroke-linejoin="round">
    <path d="M14 18V6a1 1 0 0 0-1-1H3a1 1 0 0 0-1 1v11a1 1 0 0 0 1 1h1"/>
    <path d="M15 18H9"/>
    <path d="M19 18h2a1 1 0 0 0 1-1v-3.65a1 1 0 0 0-.22-.624l-3.48-4.35A1 1 0 0 0 17.52 8H14"/>
    <circle cx="7" cy="18" r="2"/>
    <circle cx="17" cy="18" r="2"/>
  </g>
</svg>
